<svg width="226" height="91" viewBox="0 0 226 91" fill="none" xmlns="http://www.w3.org/2000/svg">
<g clip-path="url(#clip0_19_28)">
<path d="M18.8362 -0.466034C22.7987 -0.466034 25.8215 0.257719 27.9047 1.70518C30.0025 3.13776 31.0514 5.19713 31.0514 7.88329C31.0514 9.19645 30.8985 10.3231 30.5926 11.2633C30.3011 12.1885 29.8859 12.9794 29.347 13.636C28.8225 14.2777 28.1888 14.8148 27.4458 15.2476C26.7175 15.6654 25.9235 16.0236 25.064 16.322C25.6613 16.4862 26.2586 16.9264 26.8558 17.6427C27.4677 18.359 28.0869 19.2469 28.7133 20.3064C29.3397 21.3511 29.9734 22.515 30.6144 23.7984C31.2554 25.0817 31.8963 26.38 32.5373 27.6932C33.1929 29.0065 33.8484 30.2823 34.5039 31.5209C35.1741 32.7595 35.8369 33.8637 36.4925 34.8337C37.1626 35.8037 37.8327 36.5797 38.5029 37.1616C39.1875 37.7436 39.8649 38.0347 40.5351 38.0347C40.8265 38.0347 41.1105 37.975 41.3873 37.8556C41.6786 37.7362 41.9044 37.6169 42.0648 37.4974L42.5236 38.3704C42.2322 38.5346 41.8753 38.7136 41.4529 38.9077C41.0304 39.1166 40.5351 39.3105 39.967 39.4896C39.3987 39.6687 38.7578 39.8179 38.044 39.9373C37.3447 40.0716 36.5653 40.1388 35.7059 40.1388C34.2927 40.1388 33.018 39.7358 31.8818 38.93C30.7455 38.1391 29.7695 37.0199 28.9536 35.5724C28.1232 34.0801 27.3075 32.5132 26.5062 30.8718C25.705 29.2303 24.9037 27.5888 24.1026 25.9473C23.3158 24.3057 22.5219 22.7015 21.7207 21.1347C20.934 19.5678 20.1401 18.0978 19.3389 16.725L19.5136 15.8072C20.3731 16.031 21.1161 15.9789 21.7425 15.6505C22.3835 15.3222 22.908 14.7925 23.3158 14.0613C23.7237 13.3151 24.0225 12.4049 24.2118 11.3304C24.4157 10.256 24.5178 9.09193 24.5178 7.83847C24.5178 6.94305 24.423 6.10745 24.2337 5.33145C24.0443 4.54055 23.7748 3.85406 23.4251 3.27208C23.09 2.67521 22.6821 2.21254 22.2015 1.88431C21.7207 1.54106 21.1817 1.3695 20.5843 1.3695C20.1183 1.3695 19.7321 1.44411 19.4263 1.59332C19.1349 1.72764 18.9018 1.90666 18.727 2.13048C18.5521 2.33941 18.4284 2.57069 18.3555 2.82443C18.2973 3.06315 18.2681 3.29455 18.2681 3.51837V30.0659C18.2681 31.2149 17.9695 32.0506 17.3721 32.5729C16.7894 33.0953 15.8935 33.3564 14.6844 33.3564C13.4606 33.3564 12.5575 33.0953 11.9748 32.5729C11.3921 32.0506 11.1007 31.2149 11.1007 30.0659V3.29455C11.1007 2.47373 10.5471 2.06333 9.43997 2.06333C8.63874 2.06333 7.82295 2.1902 6.99257 2.44393C6.17677 2.68266 5.43381 3.01846 4.76369 3.45121C4.10814 3.86907 3.56912 4.37643 3.14666 4.97331C2.72419 5.55528 2.51295 6.18951 2.51295 6.87601C2.51295 7.35346 2.57123 7.73407 2.68777 8.0176C2.81888 8.30103 2.96456 8.5174 3.12481 8.66674C3.28506 8.80094 3.4453 8.89057 3.60555 8.93526C3.78036 8.96517 3.90418 8.98007 3.97703 8.98007C4.34122 8.98007 4.63987 8.92036 4.87295 8.80094C5.10603 8.66674 5.31726 8.53242 5.50666 8.3981C5.69604 8.24888 5.87085 8.11456 6.03109 7.99514C6.20592 7.86082 6.40258 7.79366 6.6211 7.79366C6.79591 7.79366 6.97801 7.83847 7.16739 7.92798C7.37134 8.00259 7.55343 8.12946 7.71368 8.30859C7.8885 8.48761 8.03418 8.72633 8.15072 9.02488C8.26726 9.30842 8.32554 9.659 8.32554 10.0769C8.32554 10.6738 8.20899 11.1887 7.97591 11.6214C7.75738 12.0542 7.46603 12.4198 7.10184 12.7182C6.75221 13.0017 6.3443 13.2181 5.87814 13.3673C5.42653 13.5017 4.97492 13.5688 4.52332 13.5688C3.82407 13.5688 3.19036 13.4494 2.62222 13.2107C2.06864 12.9569 1.59518 12.6138 1.20185 12.181C0.808516 11.7483 0.509875 11.2408 0.305926 10.6588C0.101975 10.0769 0 9.45764 0 8.80094C0 7.56239 0.225802 6.47305 0.677406 5.53293C1.129 4.5778 1.76271 3.7571 2.57851 3.0706C3.40889 2.38422 4.39949 1.81715 5.55036 1.3695C6.70121 0.906829 7.97591 0.541234 9.37442 0.272641C10.7729 0.00402598 12.2661 -0.182508 13.854 -0.286961C15.4565 -0.406347 17.1173 -0.466034 18.8362 -0.466034Z" fill="#FFD523"/>
<path d="M101.414 21.851C101.414 19.9706 101.327 18.4709 101.152 17.3517C100.992 16.2176 100.773 15.3595 100.496 14.7776C100.22 14.1807 99.9137 13.7926 99.5786 13.6136C99.2435 13.4196 98.9012 13.3226 98.5516 13.3226C98.1291 13.3226 97.7504 13.4419 97.4153 13.6808C97.0949 13.9046 96.8107 14.1657 96.5631 14.4642C96.33 14.7627 96.1261 15.0611 95.9512 15.3595C95.791 15.658 95.6526 15.8818 95.536 16.031V30.9836C95.536 31.1777 95.5069 31.4164 95.4486 31.6999C95.3904 31.9686 95.2447 32.2298 95.0116 32.4834C94.7931 32.7221 94.458 32.9236 94.0064 33.0878C93.5694 33.2668 92.9648 33.3563 92.1927 33.3563C91.4206 33.3563 90.8088 33.2594 90.3572 33.0654C89.9202 32.8863 89.5851 32.67 89.352 32.4162C89.1188 32.1626 88.9732 31.9014 88.915 31.6328C88.8567 31.3641 88.8275 31.1478 88.8275 30.9836V13.7031C88.8275 13.2704 88.7256 12.8973 88.5216 12.5839C88.3322 12.2556 88.0045 12.0914 87.5383 12.0914C87.2906 12.0914 87.0794 12.1362 86.9046 12.2257C86.7297 12.3154 86.5404 12.4421 86.3365 12.6063L85.8775 12.0467C86.2126 11.7632 86.5841 11.4871 86.992 11.2185C87.4145 10.9349 87.8661 10.6887 88.3468 10.4798C88.8275 10.2709 89.3447 10.0993 89.8983 9.965C90.4519 9.83068 91.0346 9.76352 91.6465 9.76352C92.5933 9.76352 93.3291 9.92763 93.8534 10.256C94.3779 10.5693 94.7639 10.9498 95.0116 11.3976C95.2592 11.8452 95.4049 12.3154 95.4486 12.8077C95.5069 13.2853 95.536 13.6882 95.536 14.0165C96.0751 13.2256 96.6869 12.5167 97.3715 11.89C97.6483 11.6214 97.9543 11.3602 98.2894 11.1066C98.639 10.8529 99.0032 10.629 99.3819 10.435C99.7753 10.2261 100.183 10.062 100.606 9.94253C101.043 9.82323 101.487 9.76352 101.939 9.76352C102.929 9.76352 103.803 9.95755 104.561 10.3455C105.333 10.7334 105.981 11.3826 106.506 12.2929C107.03 13.2032 107.431 14.412 107.707 15.9192C107.984 17.4115 108.123 19.2693 108.123 21.4928C108.123 23.6566 107.933 25.5368 107.555 27.1335C107.176 28.7304 106.681 30.0883 106.069 31.2075C105.457 32.3267 104.765 33.237 103.993 33.9383C103.221 34.6546 102.441 35.2142 101.655 35.6172C100.868 36.02 100.11 36.2961 99.3819 36.4453C98.6681 36.6096 98.049 36.6991 97.5246 36.714L97.2842 35.7962C97.7213 35.6918 98.1218 35.5277 98.486 35.3037C98.8648 35.0799 99.2072 34.7517 99.5131 34.3189C99.8191 33.8862 100.088 33.3414 100.322 32.6849C100.555 32.0133 100.751 31.1777 100.912 30.1778C101.086 29.178 101.21 27.9991 101.283 26.6412C101.371 25.2682 101.414 23.6715 101.414 21.851Z" fill="#FFD523"/>
<path d="M119.398 15.852C119.908 15.1506 120.455 14.4418 121.038 13.7255C121.619 12.9943 122.246 12.3377 122.916 11.7557C123.586 11.1738 124.315 10.6962 125.101 10.3232C125.889 9.95001 126.748 9.76354 127.68 9.76354C128.51 9.76354 129.203 9.93511 129.756 10.2784C130.309 10.6067 130.753 11.0095 131.089 11.4871C131.438 11.9497 131.679 12.4347 131.809 12.942C131.956 13.4494 132.029 13.8822 132.029 14.2403C132.029 14.897 131.941 15.5834 131.766 16.2997C131.606 17.0011 131.322 17.7025 130.914 18.4037C130.521 19.0902 129.989 19.7617 129.319 20.4184C128.649 21.0601 127.804 21.6495 126.784 22.1867C128.153 25.1564 129.487 27.7155 130.784 29.8644C132.079 31.9984 133.325 33.7519 134.519 35.1248C135.729 36.5125 136.887 37.5348 137.994 38.1914C139.101 38.848 140.157 39.1762 141.163 39.1762C141.337 39.1762 141.512 39.1539 141.687 39.1092C141.862 39.0644 142.022 39.0121 142.167 38.9524C142.329 38.8928 142.495 38.8182 142.671 38.7286L143.086 39.512C142.692 39.7358 142.292 39.9448 141.883 40.1388C141.476 40.3477 141.009 40.5267 140.485 40.676C139.961 40.8253 139.356 40.9446 138.671 41.0341C137.986 41.1237 137.171 41.1684 136.224 41.1684C135.365 41.1684 134.513 41.064 133.668 40.8551C132.837 40.6462 132 40.2731 131.155 39.7358C130.309 39.1987 129.45 38.4824 128.576 37.587C127.717 36.6917 126.827 35.5575 125.91 34.1846C125.007 32.8118 124.074 31.1777 123.113 29.2824C122.152 27.3873 121.154 25.1713 120.119 22.6345C121.518 21.5749 122.617 20.5974 123.418 19.7021C124.221 18.7918 124.825 17.971 125.233 17.2398C125.64 16.5086 125.895 15.8595 125.997 15.2924C126.099 14.7253 126.151 14.2403 126.151 13.8375C126.151 13.7778 126.143 13.6808 126.128 13.5465C126.114 13.3973 126.063 13.2555 125.976 13.1212C125.903 12.9869 125.786 12.8674 125.626 12.763C125.48 12.6585 125.269 12.6064 124.993 12.6064C124.453 12.6064 123.907 12.8451 123.353 13.3227C122.8 13.7852 122.268 14.3672 121.758 15.0686C121.262 15.7551 120.812 16.5012 120.403 17.307C119.996 18.0979 119.66 18.8216 119.398 19.4783V31.0285C119.398 31.2224 119.362 31.4538 119.289 31.7223C119.231 31.9909 119.077 32.2447 118.83 32.4834C118.597 32.7221 118.247 32.9236 117.781 33.0878C117.33 33.2669 116.718 33.3564 115.946 33.3564C115.174 33.3564 114.569 33.2594 114.132 33.0654C113.695 32.8864 113.367 32.67 113.149 32.4163C112.945 32.1626 112.813 31.9014 112.755 31.6328C112.711 31.3642 112.69 31.1478 112.69 30.9837V2.10816C112.69 1.6754 112.588 1.30236 112.384 0.988906C112.194 0.660672 111.867 0.496441 111.4 0.496441C111.153 0.496441 110.934 0.541252 110.745 0.63076C110.57 0.705369 110.381 0.824789 110.177 0.988906L109.74 0.451733C110.075 0.168196 110.446 -0.107869 110.854 -0.376484C111.262 -0.66001 111.706 -0.906243 112.187 -1.11516C112.682 -1.32408 113.207 -1.49569 113.761 -1.63C114.313 -1.7643 114.896 -1.83145 115.508 -1.83145C116.456 -1.83145 117.191 -1.69714 117.716 -1.42854C118.241 -1.17485 118.627 -0.854016 118.874 -0.466015C119.121 -0.0929473 119.268 0.309965 119.311 0.742731C119.369 1.16059 119.398 1.53363 119.398 1.86198V15.852Z" fill="#FFD523"/>
<path d="M151.957 30.0659C151.957 31.2149 151.658 32.0506 151.062 32.5729C150.479 33.0953 149.583 33.3563 148.373 33.3563C147.15 33.3563 146.247 33.0953 145.664 32.5729C145.081 32.0506 144.79 31.2149 144.79 30.0659V3.29455C144.79 2.47373 144.236 2.06333 143.13 2.06333C142.329 2.06333 141.512 2.1902 140.682 2.44393C139.866 2.68266 139.123 3.01846 138.453 3.45121C137.797 3.86907 137.258 4.37643 136.836 4.9733C136.413 5.55528 136.202 6.18951 136.202 6.87601C136.202 7.35346 136.26 7.73407 136.378 8.0176C136.508 8.30103 136.654 8.5174 136.814 8.66674C136.974 8.80094 137.135 8.89056 137.295 8.93526C137.47 8.96517 137.594 8.98007 137.666 8.98007C138.03 8.98007 138.329 8.92036 138.563 8.80094C138.795 8.66674 139.007 8.53242 139.196 8.3981C139.385 8.24888 139.561 8.11456 139.721 7.99514C139.895 7.86082 140.092 7.79366 140.31 7.79366C140.485 7.79366 140.667 7.83847 140.856 7.92798C141.061 8.00259 141.242 8.12946 141.403 8.30859C141.578 8.48761 141.723 8.72633 141.84 9.02488C141.957 9.30842 142.015 9.659 142.015 10.0769C142.015 10.6738 141.898 11.1887 141.665 11.6214C141.447 12.0542 141.155 12.4198 140.791 12.7182C140.441 13.0017 140.034 13.2181 139.567 13.3673C139.115 13.5017 138.664 13.5688 138.212 13.5688C137.513 13.5688 136.88 13.4494 136.312 13.2107C135.758 12.9569 135.285 12.6138 134.891 12.181C134.498 11.7483 134.199 11.2408 133.996 10.6588C133.791 10.0769 133.689 9.45764 133.689 8.80094C133.689 7.56239 133.915 6.47305 134.367 5.53293C134.818 4.5778 135.452 3.7571 136.268 3.0706C137.098 2.38422 138.088 1.81715 139.24 1.3695C140.391 0.906829 141.665 0.541234 143.064 0.272641C144.462 0.00402593 145.956 -0.182508 147.543 -0.286961C149.145 -0.406347 150.807 -0.466034 152.525 -0.466034C156.692 -0.466034 159.846 0.354711 161.987 1.99617C164.129 3.62278 165.199 5.96568 165.199 9.02488C165.199 10.5171 165.002 11.8378 164.61 12.9868C164.23 14.1359 163.714 15.1283 163.058 15.9639C162.417 16.7847 161.674 17.4562 160.829 17.9785C159.985 18.4859 159.111 18.8515 158.207 19.0753C157.304 19.2991 156.393 19.3887 155.476 19.344C154.573 19.2991 153.727 19.1276 152.94 18.829L153.247 17.8666C154.339 18.2098 155.235 18.2247 155.934 17.9114C156.648 17.583 157.202 17.0085 157.595 16.1878C158.003 15.367 158.279 14.3299 158.426 13.0763C158.586 11.8229 158.665 10.4425 158.665 8.93526C158.665 7.80111 158.549 6.77148 158.316 5.84626C158.084 4.90615 157.763 4.10779 157.355 3.45121C156.961 2.79463 156.495 2.28727 155.957 1.92901C155.432 1.55596 154.87 1.3695 154.274 1.3695C153.808 1.3695 153.422 1.44411 153.115 1.59332C152.824 1.72764 152.591 1.90666 152.416 2.13048C152.256 2.33941 152.139 2.57069 152.067 2.82443C152.008 3.06315 151.972 3.29455 151.957 3.51837V30.0659Z" fill="#FFD523"/>
<path d="M173.088 22.7239C173.088 23.2014 173.154 23.7238 173.285 24.2908C173.43 24.8429 173.634 25.4025 173.897 25.9696C174.159 26.5367 174.48 27.0814 174.858 27.6037C175.252 28.111 175.696 28.5661 176.19 28.9691C176.701 29.372 177.262 29.6928 177.873 29.9316C178.485 30.1704 179.155 30.2897 179.884 30.2897C180.394 30.2897 180.867 30.2301 181.305 30.1107C181.741 29.9913 182.149 29.8271 182.529 29.6182C182.907 29.4093 183.271 29.1706 183.621 28.9019C183.971 28.6184 184.32 28.3199 184.67 28.0066L185.216 28.5438C184.88 29.0064 184.451 29.5138 183.927 30.0659C183.402 30.618 182.768 31.1403 182.025 31.6328C181.282 32.1103 180.416 32.5132 179.425 32.8415C178.435 33.1549 177.306 33.3116 176.038 33.3116C174.771 33.3116 173.532 33.0803 172.323 32.6177C171.129 32.1401 170.065 31.4313 169.133 30.4912C168.201 29.5511 167.45 28.3797 166.882 26.9769C166.328 25.5742 166.052 23.9327 166.052 22.0523C166.052 20.6944 166.22 19.4484 166.554 18.3142C166.89 17.1801 167.341 16.1579 167.909 15.2476C168.492 14.3374 169.162 13.539 169.92 12.8525C170.692 12.166 171.5 11.5991 172.345 11.1513C173.19 10.6887 174.049 10.3455 174.924 10.1217C175.812 9.88294 176.665 9.76352 177.48 9.76352C178.558 9.76352 179.498 9.88294 180.299 10.1217C181.1 10.3604 181.763 10.6813 182.288 11.0841C182.826 11.4871 183.228 11.9571 183.49 12.4944C183.751 13.0166 183.882 13.5688 183.882 14.1508C183.882 14.8522 183.687 15.4864 183.293 16.0535C182.9 16.6055 182.375 17.0906 181.72 17.5084L173.088 22.7239ZM177.48 18.1799C177.67 18.0606 177.823 17.9486 177.939 17.8442C178.07 17.7248 178.172 17.5905 178.245 17.4413C178.318 17.2771 178.369 17.0831 178.398 16.8593C178.442 16.6206 178.464 16.3296 178.464 15.9863C178.464 15.6133 178.42 15.2029 178.333 14.7552C178.259 14.2925 178.128 13.8598 177.939 13.4568C177.75 13.054 177.51 12.7182 177.218 12.4496C176.927 12.181 176.578 12.0467 176.169 12.0467C175.645 12.0467 175.194 12.2108 174.814 12.5392C174.45 12.8525 174.144 13.2629 173.897 13.7703C173.663 14.2776 173.474 14.8596 173.329 15.5162C173.198 16.1579 173.096 16.807 173.022 17.4636C172.949 18.1203 172.906 18.7544 172.891 19.3663C172.877 19.9632 172.87 20.4705 172.87 20.8884L177.48 18.1799Z" fill="#FFD523"/>
<path d="M194.481 31.0285C194.481 31.2224 194.445 31.4538 194.371 31.7223C194.313 31.9909 194.161 32.2447 193.913 32.4834C193.68 32.7221 193.33 32.9236 192.864 33.0878C192.412 33.2669 191.8 33.3564 191.028 33.3564C190.256 33.3564 189.652 33.2594 189.215 33.0654C188.777 32.8864 188.45 32.67 188.231 32.4163C188.028 32.1626 187.897 31.9014 187.838 31.6328C187.795 31.3642 187.772 31.1478 187.772 30.9837V2.10816C187.772 1.6754 187.671 1.30236 187.467 0.988906C187.277 0.660672 186.949 0.496441 186.484 0.496441C186.235 0.496441 186.017 0.541252 185.828 0.63076C185.653 0.705369 185.463 0.824789 185.26 0.988906L184.822 0.451733C185.158 0.168196 185.529 -0.107869 185.936 -0.376484C186.345 -0.66001 186.789 -0.906243 187.27 -1.11516C187.766 -1.32408 188.289 -1.49569 188.843 -1.63C189.397 -1.7643 189.98 -1.83145 190.592 -1.83145C191.538 -1.83145 192.273 -1.69714 192.798 -1.42854C193.323 -1.17485 193.709 -0.854016 193.956 -0.466015C194.204 -0.0929473 194.35 0.309965 194.394 0.742731C194.452 1.16059 194.481 1.53363 194.481 1.86198V31.0285Z" fill="#FFD523"/>
<path d="M206.98 30.9837C206.98 31.1777 206.943 31.4164 206.871 31.7C206.812 31.9686 206.66 32.2298 206.412 32.4834C206.179 32.7221 205.837 32.9236 205.385 33.0878C204.934 33.2669 204.322 33.3564 203.55 33.3564C202.777 33.3564 202.173 33.2594 201.735 33.0654C201.299 32.8864 200.971 32.67 200.753 32.4162C200.534 32.1626 200.396 31.9014 200.337 31.6328C200.293 31.3642 200.272 31.1478 200.272 30.9837V13.7031C200.272 13.2704 200.17 12.8973 199.965 12.5839C199.776 12.2557 199.448 12.0914 198.983 12.0914C198.735 12.0914 198.523 12.1362 198.349 12.2257C198.174 12.3154 197.985 12.4421 197.78 12.6064L197.322 12.0467C197.657 11.7632 198.029 11.4871 198.436 11.2185C198.859 10.9349 199.311 10.6888 199.791 10.4798C200.272 10.2709 200.789 10.0993 201.343 9.96501C201.896 9.83069 202.479 9.76354 203.09 9.76354C204.038 9.76354 204.773 9.89785 205.298 10.1665C205.822 10.4201 206.208 10.741 206.455 11.129C206.704 11.502 206.849 11.905 206.893 12.3377C206.951 12.7705 206.98 13.151 206.98 13.4793V30.9837ZM199.594 4.65998C199.594 4.24213 199.682 3.84662 199.857 3.47357C200.046 3.08563 200.301 2.74983 200.621 2.46629C200.957 2.18276 201.335 1.95893 201.758 1.79481C202.195 1.63058 202.668 1.54852 203.178 1.54852C203.673 1.54852 204.132 1.63058 204.555 1.79481C204.992 1.95893 205.37 2.18276 205.691 2.46629C206.011 2.74983 206.259 3.08563 206.434 3.47357C206.623 3.84662 206.718 4.24213 206.718 4.65998C206.718 5.09274 206.623 5.49558 206.434 5.86874C206.259 6.24178 206.011 6.57002 205.691 6.85356C205.37 7.12219 204.992 7.33857 204.555 7.50269C204.132 7.66692 203.673 7.74898 203.178 7.74898C202.668 7.74898 202.195 7.66692 201.758 7.50269C201.335 7.33857 200.957 7.12219 200.621 6.85356C200.301 6.57002 200.046 6.24178 199.857 5.86874C199.682 5.49558 199.594 5.09274 199.594 4.65998Z" fill="#FFD523"/>
<path d="M219.523 11.5542C219.188 11.5542 218.868 11.5991 218.562 11.6886C218.27 11.7781 218.008 11.9273 217.775 12.1362C217.542 12.3303 217.359 12.5839 217.229 12.8973C217.098 13.1958 217.032 13.5539 217.032 13.9718C217.032 14.5537 217.236 15.1357 217.644 15.7177C218.067 16.2848 218.583 16.8816 219.195 17.5084C219.822 18.1203 220.492 18.762 221.206 19.4335C221.934 20.09 222.604 20.7914 223.216 21.5375C223.843 22.2687 224.36 23.0522 224.767 23.8879C225.19 24.7236 225.401 25.6189 225.401 26.574C225.401 27.6485 225.219 28.6035 224.855 29.4392C224.505 30.2748 223.995 30.9836 223.325 31.5656C222.669 32.1476 221.868 32.5954 220.922 32.9087C219.99 33.2071 218.948 33.3563 217.797 33.3563C216.792 33.3563 215.881 33.2146 215.066 32.931C214.249 32.6326 213.521 32.2745 212.88 31.8566C212.254 31.4239 211.715 30.9687 211.263 30.4912C210.811 30.0137 210.462 29.581 210.215 29.1929L210.979 28.6333C211.168 28.8571 211.408 29.1034 211.7 29.372C211.991 29.6257 212.312 29.8644 212.662 30.0883C213.026 30.3122 213.412 30.4986 213.82 30.6478C214.228 30.7822 214.643 30.8493 215.066 30.8493C216.114 30.8493 216.973 30.5957 217.644 30.0883C218.314 29.566 218.649 28.7975 218.649 27.7827C218.649 27.2157 218.467 26.6336 218.102 26.0368C217.739 25.425 217.28 24.7982 216.726 24.1565C216.172 23.5148 215.575 22.8508 214.934 22.1643C214.293 21.4778 213.696 20.7691 213.143 20.0378C212.589 19.3066 212.13 18.5531 211.765 17.7771C211.402 17.001 211.219 16.1952 211.219 15.3595C211.219 14.4194 211.402 13.5986 211.765 12.8973C212.145 12.1959 212.64 11.614 213.251 11.1513C213.878 10.6887 214.585 10.3455 215.371 10.1217C216.172 9.88294 216.996 9.76352 217.841 9.76352C218.816 9.76352 219.706 9.85303 220.507 10.0322C221.308 10.2112 221.992 10.4873 222.561 10.8603C223.144 11.2185 223.588 11.6737 223.893 12.2257C224.214 12.7779 224.374 13.4196 224.374 14.1508C224.374 14.7179 224.192 15.2103 223.828 15.6282C223.464 16.046 222.953 16.2548 222.298 16.2548C221.672 16.2548 221.191 16.1206 220.856 15.852C220.536 15.5685 220.376 15.188 220.376 14.7104C220.376 14.3971 220.448 14.1508 220.594 13.9718C220.754 13.7926 220.928 13.6509 221.119 13.5465C221.308 13.427 221.476 13.3301 221.621 13.2555C221.781 13.1658 221.862 13.054 221.862 12.9197C221.862 12.5018 221.642 12.1736 221.206 11.9347C220.768 11.6811 220.208 11.5542 219.523 11.5542Z" fill="#FFD523"/>
<path d="M69.3663 42.8651H58.1782V49.7415H69.3663V42.8651Z" fill="#FAD30A"/>
<path d="M30.3898 70.9107L50.8708 36.0167L64.7508 50.445L30.3898 70.9107Z" fill="#FAD30A"/>
<path d="M95.3594 71.5861L60.6851 51.6827L74.3393 37.0302L95.3594 71.5861Z" fill="#FAD30A"/>
<path d="M74.9604 33.6966H50.3465V46.3034H74.9604V33.6966Z" fill="#FAD30A"/>
<path d="M64.3317 41.7191C70.8197 41.7191 76.0792 38.3839 76.0792 34.2697C76.0792 30.1554 70.8197 26.8202 64.3317 26.8202C57.8437 26.8202 52.5842 30.1554 52.5842 34.2697C52.5842 38.3839 57.8437 41.7191 64.3317 41.7191Z" fill="#FAD30A"/>
<path d="M62.0941 38.2809C73.5253 38.2809 82.7921 29.8145 82.7921 19.3708C82.7921 8.92701 73.5253 0.460663 62.0941 0.460663C50.6629 0.460663 41.396 8.92701 41.396 19.3708C41.396 29.8145 50.6629 38.2809 62.0941 38.2809Z" fill="#5A6169"/>
<path d="M62.6535 3.89886L65.6678 14.5897H75.4221L67.5307 21.197L70.5449 31.8878L62.6535 25.2805L54.762 31.8878L57.7762 21.197L49.8848 14.5897H59.6392L62.6535 3.89886Z" fill="#FAD30A"/>
<path d="M27.4109 72.9494C27.6093 72.924 27.7967 72.7519 27.9703 72.6629" stroke="black"/>
<path d="M27.1312 72.6629C27.8697 72.6629 28.7532 72.2237 29.3688 71.8034" stroke="black"/>
<path d="M93.9802 72.3764C93.5493 71.8799 93.8043 71.7787 94.2599 72.0899" stroke="black"/>
<path d="M91.1832 72.0899L62.0941 54.3258L32.4455 72.0899" stroke="#617999" stroke-width="6"/>
<path d="M70.4698 32.7508L106.636 93.3631" stroke="#5A6169" stroke-width="7"/>
<path d="M56.9446 33.6966L16.7822 91.6084" stroke="#5A6169" stroke-width="7"/>
</g>
<defs>
<clipPath id="clip0_19_28">
<rect width="226" height="102" fill="white" transform="translate(0 -11)"/>
</clipPath>
</defs>
</svg>
