<svg width="23" height="23" viewBox="0 0 23 23" fill="none" xmlns="http://www.w3.org/2000/svg">
<g clip-path="url(#clip0_19_59)">
<path d="M11.4871 2.00746C11.6194 2.00746 11.7517 2.05517 11.8527 2.15035L20.2387 10.0567C20.5644 10.3639 20.3336 10.889 19.8731 10.889H18.9728C18.6873 10.889 18.4558 11.1074 18.4558 11.3765V20.479C18.4558 20.7484 18.2243 20.9665 17.9388 20.9665H5.03573C4.7502 20.9665 4.51869 20.7481 4.51869 20.479V11.3765C4.51869 11.1072 4.28719 10.889 4.00165 10.889H3.10138C2.64064 10.889 2.40989 10.3639 2.73581 10.0567L11.1216 2.15035C11.2225 2.05517 11.3548 2.00746 11.4871 2.00746ZM11.4871 0.126373C10.8673 0.126373 10.2791 0.359142 9.83098 0.781509L1.44498 8.68783C0.737586 9.35483 0.511128 10.3669 0.868108 11.266C1.17308 12.0342 1.8416 12.574 2.63735 12.7262V20.4788C2.63735 21.785 3.71334 22.8476 5.03573 22.8476H17.9388C19.2612 22.8476 20.3371 21.785 20.3371 20.4788V12.7264C21.1329 12.5742 21.8012 12.0345 22.1064 11.2662C22.4634 10.3669 22.2372 9.35508 21.5295 8.68808L13.1433 0.781509C12.6951 0.359142 12.1069 0.126373 11.4871 0.126373Z" fill="#EEEEEE"/>
</g>
<defs>
<clipPath id="clip0_19_59">
<rect width="23" height="23" fill="white"/>
</clipPath>
</defs>
</svg>
