<svg width="23" height="23" viewBox="0 0 23 23" fill="none" xmlns="http://www.w3.org/2000/svg">
<g clip-path="url(#clip0_19_62)">
<path d="M2.5255 2.55153C-0.668128 5.74516 -0.668128 10.9423 2.5255 14.1362C5.50858 17.1188 10.2377 17.3149 13.4513 14.7267L21.3394 22.6149C21.6843 22.96 22.244 22.96 22.5888 22.6149C22.7615 22.4424 22.8478 22.2162 22.8478 21.99C22.8478 21.7638 22.7615 21.5376 22.5891 21.3652L14.7009 13.4773C15.9037 11.9842 16.5058 10.1642 16.5058 8.34399C16.5058 6.2463 15.7075 4.1486 14.1104 2.55178C10.9163 -0.642355 5.71964 -0.642355 2.5255 2.55153ZM12.8607 3.80096C15.3654 6.30588 15.3654 10.3816 12.8607 12.8865C10.3558 15.3914 6.2801 15.3914 3.77518 12.8865C1.27027 10.3819 1.27027 6.30588 3.77518 3.80096C6.2801 1.29604 10.3561 1.29604 12.8607 3.80096Z" fill="#EEEEEE"/>
<path d="M9.89206 12.2993C9.89206 12.7646 9.52877 13.1541 9.05818 13.1809C7.55579 13.2657 6.08419 12.7045 5.02083 11.6414C3.68253 10.3031 3.16095 8.33642 3.65906 6.50911C3.78731 6.03852 4.27329 5.76081 4.74388 5.88906C5.21472 6.01756 5.49217 6.50279 5.36418 6.97414C5.03194 8.18974 5.37932 9.50077 6.27051 10.3917C6.97816 11.0993 7.95821 11.473 8.95871 11.4164C9.44596 11.3889 9.86328 11.7616 9.89055 12.2488C9.89156 12.2655 9.89206 12.2824 9.89206 12.2993Z" fill="#EEEEEE"/>
</g>
<defs>
<clipPath id="clip0_19_62">
<rect width="23" height="23" fill="white"/>
</clipPath>
</defs>
</svg>
