<svg width="23" height="23" viewBox="0 0 23 23" fill="none" xmlns="http://www.w3.org/2000/svg">
<g clip-path="url(#clip0_19_67)">
<path d="M10.605 14.2859H4.35434C4.21498 14.2859 4.10188 14.1731 4.10188 14.0334V12.2609C4.10188 12.1213 4.21498 12.0085 4.35434 12.0085H10.605C10.7444 12.0085 10.8575 12.1213 10.8575 12.2609V14.0334C10.8575 14.1731 10.7444 14.2859 10.605 14.2859ZM4.6068 13.781H10.3526V12.5134H4.6068V13.781Z" fill="#EEEEEE"/>
<path d="M13.9479 16.0582H4.35434C4.21498 16.0582 4.10188 15.9453 4.10188 15.8057C4.10188 15.6661 4.21498 15.5533 4.35434 15.5533H13.9479C14.0875 15.5533 14.2003 15.6661 14.2003 15.8057C14.2003 15.9453 14.0875 16.0582 13.9479 16.0582Z" fill="#EEEEEE"/>
<path d="M16.6817 16.0582H15.7489C15.6093 16.0582 15.4964 15.9453 15.4964 15.8057C15.4964 15.6661 15.6093 15.5533 15.7489 15.5533H16.6817C16.8214 15.5533 16.9342 15.6661 16.9342 15.8057C16.9342 15.9453 16.8214 16.0582 16.6817 16.0582Z" fill="#EEEEEE"/>
<path d="M22.7196 10.7648C22.6406 10.7204 22.5436 10.7214 22.4651 10.7684L19.4664 12.5709V9.65551C19.4664 9.51615 19.3535 9.40305 19.2139 9.40305H16.0718C17.6393 8.61967 18.7206 7.00341 18.7206 5.1352C18.7206 2.50355 16.5798 0.362427 13.9479 0.362427C11.4157 0.362427 9.34372 2.34601 9.18997 4.84007C8.60351 3.87971 7.54872 3.23518 6.34348 3.23518C4.50379 3.23518 3.00695 4.73202 3.00695 6.5717C3.00695 7.7666 3.64063 8.81381 4.58736 9.4033H2.09355C1.95419 9.4033 1.84109 9.51641 1.84109 9.65577V12.0084H0.378834C0.239476 12.0084 0.126373 12.1213 0.126373 12.2609V15.806C0.126373 15.9456 0.239476 16.0584 0.378834 16.0584H1.84109V18.4114C1.84109 18.551 1.95419 18.6638 2.09355 18.6638H10.0044L6.17307 22.1733C6.07031 22.2675 6.06324 22.4273 6.15741 22.53C6.20715 22.5843 6.27531 22.6118 6.34373 22.6118C6.40457 22.6118 6.46567 22.5898 6.51414 22.5454L10.6537 18.7534L14.7933 22.5454C14.8418 22.5898 14.9032 22.6118 14.964 22.6118C15.0324 22.6118 15.1003 22.5843 15.1501 22.53C15.2442 22.4273 15.2374 22.2675 15.1344 22.1733L11.3031 18.6638H19.2142C19.3538 18.6638 19.4666 18.551 19.4666 18.4114V15.4962L22.4654 17.2988C22.5055 17.3228 22.5505 17.3349 22.5956 17.3349C22.6386 17.3349 22.6815 17.324 22.7199 17.302C22.7989 17.2574 22.8481 17.1733 22.8481 17.0824V10.9845C22.8479 10.8936 22.7989 10.8095 22.7196 10.7648ZM13.9479 0.867349C16.301 0.867349 18.2157 2.78176 18.2157 5.1352C18.2157 7.48864 16.301 9.40305 13.9479 9.40305C11.5944 9.40305 9.68 7.48864 9.68 5.1352C9.68 2.78176 11.5944 0.867349 13.9479 0.867349ZM11.8239 9.40305H8.09959C8.8903 8.91075 9.4596 8.09934 9.62648 7.14832C10.0837 8.1256 10.8605 8.92161 11.8239 9.40305ZM3.51213 6.57145C3.51213 5.00998 4.78226 3.73985 6.34373 3.73985C7.90495 3.73985 9.17508 5.00998 9.17508 6.57145C9.17508 8.13292 7.90495 9.40305 6.34373 9.40305C4.78226 9.40305 3.51213 8.13292 3.51213 6.57145ZM0.631295 15.5533V12.5131H1.84109V15.5533H0.631295ZM18.9615 18.1589H2.34601V15.806V12.2607V9.90797H18.9617V13.017V15.0496V18.1589H18.9615ZM22.3429 16.6361L19.4664 14.907V13.1599L22.3429 11.4308V16.6361Z" fill="#EEEEEE"/>
<path d="M13.9479 7.56892C15.2897 7.56892 16.3818 6.47703 16.3818 5.1352C16.3818 3.79337 15.2899 2.70148 13.9479 2.70148C12.6058 2.70148 11.5139 3.79337 11.5139 5.1352C11.5139 6.47703 12.606 7.56892 13.9479 7.56892ZM13.9479 3.2064C15.0115 3.2064 15.8769 4.07158 15.8769 5.1352C15.8769 6.19882 15.0115 7.064 13.9479 7.064C12.8842 7.064 12.0188 6.19882 12.0188 5.1352C12.0188 4.07158 12.8842 3.2064 13.9479 3.2064Z" fill="#EEEEEE"/>
<path d="M6.34347 5.0726C5.51692 5.0726 4.84436 5.74516 4.84436 6.57171C4.84436 7.39802 5.51692 8.07057 6.34347 8.07057C7.17003 8.07057 7.84233 7.39802 7.84233 6.57171C7.84233 5.74491 7.17003 5.0726 6.34347 5.0726ZM6.34347 7.5654C5.79538 7.5654 5.34928 7.11955 5.34928 6.57146C5.34928 6.02337 5.79513 5.57727 6.34347 5.57727C6.89157 5.57727 7.33741 6.02337 7.33741 6.57146C7.33741 7.11955 6.89157 7.5654 6.34347 7.5654Z" fill="#EEEEEE"/>
</g>
<defs>
<clipPath id="clip0_19_67">
<rect width="23" height="23" fill="white"/>
</clipPath>
</defs>
</svg>
